<svg width="19" height="17" viewBox="0 0 19 17" fill="none" xmlns="http://www.w3.org/2000/svg">
<path d="M0.374488 14.5127C2.13357 15.6289 4.18082 16.2187 6.29457 16.2187C9.38999 16.2187 12.2265 15.0296 14.2825 12.8708C16.2498 10.8045 17.332 8.02814 17.2782 5.2106C18.0239 4.57252 18.9011 3.35414 18.9011 2.16664C18.9011 1.71143 18.4071 1.42248 18.0065 1.65443C17.3059 2.0661 16.667 2.17377 16.0099 1.98931C14.668 0.681475 12.6707 0.405975 10.9876 1.31323C9.51665 2.10489 8.69886 3.55364 8.77249 5.13698C6.28745 4.83377 3.99161 3.58768 2.39086 1.65127C2.12803 1.33539 1.62928 1.3726 1.42028 1.73043C0.649196 3.05093 0.657113 4.58123 1.32765 5.81702C1.00861 5.87323 0.811488 6.1416 0.811488 6.43214C0.811488 7.67427 1.3704 8.81585 2.27053 9.59485C2.1027 9.75635 2.04728 9.99623 2.11853 10.21C2.51436 11.3991 3.41053 12.3285 4.53074 12.794C3.31236 13.3758 1.96495 13.5698 0.765571 13.4226C0.144905 13.3386 -0.16147 14.1731 0.374488 14.5127V14.5127ZM6.45686 12.9974C6.90099 12.6562 6.66507 11.9453 6.10774 11.9334C5.12607 11.9129 4.23228 11.4291 3.67574 10.6684C3.94411 10.6509 4.22199 10.6098 4.4864 10.5385C5.08886 10.3754 5.06036 9.50618 4.4484 9.38348C3.3377 9.16023 2.46607 8.35114 2.13911 7.30931C2.43757 7.38293 2.74157 7.4241 3.04478 7.42964C3.64565 7.43281 3.87286 6.66252 3.38282 6.34031C2.27845 5.61277 1.8074 4.32789 2.11932 3.11981C4.04782 5.07364 6.66428 6.25085 9.43195 6.38385C9.82857 6.40839 10.1262 6.03552 10.0392 5.65789C9.66311 4.02785 10.5735 2.88548 11.5512 2.35902C12.5187 1.83652 14.0719 1.67343 15.2626 2.92268C15.6164 3.29556 16.8103 3.30981 17.4175 3.1681C17.1452 3.6811 16.7264 4.16798 16.3345 4.44189C16.1674 4.55906 16.0717 4.75381 16.0819 4.95727C16.2094 7.55789 15.2404 10.1435 13.4235 12.0506C11.5932 13.972 9.06224 15.0304 6.29536 15.0304C5.19495 15.0304 4.1159 14.8515 3.09624 14.5063C4.3154 14.2704 5.47361 13.7543 6.45686 12.9974V12.9974Z" fill="white"/>
</svg>
